<svg xmlns="http://www.w3.org/2000/svg" xmlns:svgjs="http://svgjs.dev/svgjs" xmlns:xlink="http://www.w3.org/1999/xlink" width="128" height="128" version="1.1" viewBox="0 0 128 128"><g transform="matrix(0.8046875,0,0,0.8046875,12.333870967741937,12.333870967741937)"><svg xmlns="http://www.w3.org/2000/svg" xmlns:xlink="http://www.w3.org/1999/xlink" width="128" height="128" data-background-color="#282634" preserveAspectRatio="xMidYMid meet" viewBox="0 0 155 155"><g id="tight-bounds" transform="matrix(1,0,0,1,0.25,0.25)"><svg width="154.5" height="154.5" viewBox="0 0 154.5 154.5"><g><svg/></g><g><svg width="154.5" height="154.5" viewBox="0 0 154.5 154.5"><g transform="matrix(1,0,0,1,72.762393,43.83165)"><svg width="8.975" height="66.837" viewBox="0 0 8.975 66.837"><g><svg width="8.975" height="66.837" viewBox="0 0 8.975 66.837"><g><svg width="8.975" height="66.837" viewBox="0 0 8.975 66.837"><g><svg width="8.975" height="66.837" viewBox="0 0 8.975 66.837"><g><svg width="8.975" height="66.837" viewBox="0 0 8.975 66.837"><g transform="matrix(1,0,0,1,0,0)"><svg width="8.975" height="66.837" data-palette-color="#ff4057" viewBox="3.5 -35 4.7 35"><path id="text-0" fill="#ff4057" d="M8.2-35L8.2 0 3.5 0 3.5-35 8.2-35Z" class="undefined-text-0" data-fill-palette-color="primary" opacity="1" transform="matrix(1,0,0,1,0,0)"/></svg></g></svg></g></svg></g></svg></g></svg></g></svg></g><g mask="url(#f1b34e29-20a4-4c3b-9d52-f966f07d9362)"><g transform="matrix(1.6308939437689156, 0, 0, 1.6308939437689156, 11.42385864159904, 1)"><svg xmlns="http://www.w3.org/2000/svg" xmlns:xlink="http://www.w3.org/1999/xlink" id="none" width="80.724" height="93.507" x="0" y="0" class="icon-none" data-fill-palette-color="accent" enable-background="new 0 0 100 100" version="1.1" viewBox="9.638 3.247 80.724 93.507" xml:space="preserve"><g fill="#dcdcdc" data-fill-palette-color="accent"><g fill="#dcdcdc" data-fill-palette-color="accent"><polygon fill="#dcdcdc" points="36.703 11.011 9.638 26.636 9.638 38.757 36.703 23.131 63.767 38.757 63.767 26.636" data-fill-palette-color="accent"/></g><g fill="#dcdcdc" data-fill-palette-color="accent"><polygon fill="#dcdcdc" points="63.298 89.092 36.233 73.467 36.233 61.348 63.298 76.973 90.362 61.348 90.362 73.467" data-fill-palette-color="accent"/></g><g fill="#dcdcdc" data-fill-palette-color="accent"><polygon fill="#dcdcdc" points="9.638 42.012 36.703 26.386 47.198 32.446 20.134 48.072 20.134 79.324 9.638 73.264" data-fill-palette-color="accent"/></g><g fill="#dcdcdc" data-fill-palette-color="accent"><polygon fill="#dcdcdc" points="77.083 18.872 50.018 3.247 39.522 9.307 66.586 24.932 66.586 56.184 77.083 50.124" data-fill-palette-color="accent"/></g><g fill="#dcdcdc" data-fill-palette-color="accent"><polygon fill="#dcdcdc" points="23.01 81.127 23.011 49.876 33.507 43.816 33.507 75.068 60.571 90.693 50.075 96.754" data-fill-palette-color="accent"/></g><g fill="#dcdcdc" data-fill-palette-color="accent"><polygon fill="#dcdcdc" points="90.362 58.092 90.362 26.84 79.866 20.78 79.866 52.031 52.802 67.658 63.298 73.719" data-fill-palette-color="accent"/></g></g></svg></g></g></svg></g><defs><mask id="f1b34e29-20a4-4c3b-9d52-f966f07d9362"><rect width="250" height="250" fill="#fff"/><rect id="transform-me" width="9.873" height="98.394" x="120.064" y="75.803" fill="#000" transform="matrix(1,0,0,1,-47.75,-47.75)"/></mask></defs></svg><rect width="154.5" height="154.5" fill="none" stroke="none" visibility="hidden"/></g></svg></g></svg>